# xmcd CD database file
#
# Track frame offsets:
#	182
#	34797
#	57557
#	102252
#	151785
#	194417
#
# Disc length: 3575 seconds
#
# Revision: 0
# Processed by: cddbd v1.5.2PL0 Copyright (c) Steve Scherf et al.
# Submitted via: CDex 1.70beta2
#
DISCID=490df506
DTITLE=Thierry Bruneau feat. Mal Waldron - Live AT De Kave
DYEAR=1989
DGENRE=Jazz
TTITLE0=Theme for sister salvation
TTITLE1=Mandrake
TTITLE2=Nicely
TTITLE3=Bee vamp
TTITLE4=245
TTITLE5=Melody for Melonae
EXTD=YEAR: 1989
EXTT0=
EXTT1=
EXTT2=
EXTT3=
EXTT4=
EXTT5=
PLAYORDER=
